<svg width="48" height="49" viewBox="0 0 48 49" fill="none" xmlns="http://www.w3.org/2000/svg">
<path fill-rule="evenodd" clip-rule="evenodd" d="M31.0756 28.7067L34.4521 34.555L35.6052 33.4019L34.5141 30.9449C35.434 29.5747 36.0944 28.0157 36.4239 26.3378L38.931 25.3727V22.3816L36.4245 21.4169C36.0949 19.7387 35.4347 18.1791 34.5144 16.8087L35.6052 14.3525L33.4902 12.2375L31.0333 13.3287C29.663 12.4088 28.104 11.7484 26.4261 11.4189L25.461 8.91162H22.4699L21.5049 11.4187C19.8269 11.7483 18.2679 12.4087 16.8977 13.3286L14.4408 12.2374L12.3257 14.3524L13.4168 16.8092C12.4967 18.1794 11.8364 19.7386 11.5069 21.4166L9 22.3816V25.3727L11.5066 26.3375C11.8363 28.0156 12.4964 29.5753 13.4166 30.9457L12.3257 33.4019L13.4789 34.555L16.8554 28.7067C15.9185 27.3302 15.3707 25.6677 15.3707 23.8771C15.3707 19.1304 19.2188 15.2824 23.9655 15.2824C28.7122 15.2824 32.5602 19.1304 32.5602 23.8771C32.5602 25.6677 32.0125 27.3302 31.0756 28.7067ZM25.8899 22.9789L34.3189 37.5784C34.7213 38.2754 34.7213 39.1036 34.3189 39.8006C33.9166 40.4975 33.1993 40.9116 32.3946 40.9116H15.5364C14.7317 40.9116 14.0144 40.4974 13.6121 39.8006C13.2097 39.1037 13.2097 38.2754 13.6121 37.5784L22.0411 22.9789C22.4435 22.282 23.1607 21.8679 23.9655 21.8679C24.7702 21.8679 25.4875 22.282 25.8899 22.9789ZM23.9655 36.5434C23.3534 36.5434 22.8572 37.0396 22.8572 37.6517C22.8572 38.2639 23.3534 38.7601 23.9655 38.7601C24.5776 38.7601 25.0738 38.2639 25.0738 37.6517C25.0738 37.0396 24.5776 36.5434 23.9655 36.5434ZM23.9656 34.5651C23.5 34.5651 23.1178 34.1964 23.1009 33.7312L22.8822 27.6754C22.8734 27.4318 22.9549 27.219 23.1241 27.0436C23.2933 26.8681 23.5031 26.7791 23.7467 26.7791H24.1841C24.4279 26.7791 24.6376 26.8682 24.8068 27.0436C24.976 27.219 25.0574 27.4318 25.0487 27.6754L24.83 33.7312C24.8132 34.1964 24.4311 34.5651 23.9656 34.5651Z" fill="#AB6A70"/>
</svg>

