<svg width="48" height="49" viewBox="0 0 48 49" fill="none" xmlns="http://www.w3.org/2000/svg">
<rect width="48" height="48" transform="translate(0 0.55896)" fill="white"/>
<path d="M34.4438 18.4442C33.5651 18.443 32.7228 18.0934 32.1015 17.4721C31.4803 16.8508 31.1307 16.0085 31.1295 15.1299V8.91162H18.1466C15.6209 8.91162 13.5752 10.9573 13.5752 13.483V17.6408C14.3158 17.4221 15.0841 17.3112 15.8563 17.3116C17.9923 17.3116 19.9981 18.1413 21.5043 19.6465C24.6186 22.763 24.6198 27.8305 21.5066 30.9459C20.766 31.6896 19.8854 32.2791 18.9155 32.6802C17.9456 33.0814 16.9059 33.2863 15.8563 33.2831C15.0781 33.2831 14.3112 33.1688 13.5752 32.9471V36.3402C13.5752 38.8659 15.6209 40.9116 18.1466 40.9116H36.0781C38.6038 40.9116 40.6495 38.8659 40.6495 36.3402V18.4442H34.4438ZM27.6872 30.6602H24.7615C24.4887 30.6602 24.2271 30.5518 24.0342 30.3589C23.8413 30.166 23.7329 29.9044 23.7329 29.6316C23.7329 29.3588 23.8413 29.0972 24.0342 28.9043C24.2271 28.7114 24.4887 28.6031 24.7615 28.6031H27.6872C27.96 28.6031 28.2216 28.7114 28.4145 28.9043C28.6074 29.0972 28.7158 29.3588 28.7158 29.6316C28.7158 29.9044 28.6074 30.166 28.4145 30.3589C28.2216 30.5518 27.96 30.6602 27.6872 30.6602ZM33.7443 26.7871H25.8701C25.5973 26.7871 25.3356 26.6787 25.1427 26.4858C24.9498 26.2929 24.8415 26.0313 24.8415 25.7585C24.8415 25.4857 24.9498 25.2241 25.1427 25.0312C25.3356 24.8383 25.5973 24.7299 25.8701 24.7299H33.7443C34.0171 24.7299 34.2788 24.8383 34.4716 25.0312C34.6645 25.2241 34.7729 25.4857 34.7729 25.7585C34.7729 26.0313 34.6645 26.2929 34.4716 26.4858C34.2788 26.6787 34.0171 26.7871 33.7443 26.7871Z" fill="#AB6A70"/>
<path d="M15.8566 31.2248C16.6355 31.2261 17.4071 31.0735 18.1269 30.7758C18.8466 30.4781 19.5005 30.0411 20.0509 29.4899C21.1615 28.3763 21.7851 26.8678 21.7851 25.295C21.7851 23.7223 21.1615 22.2138 20.0509 21.1002C18.9371 19.9905 17.4289 19.3675 15.8566 19.3675C14.2844 19.3675 12.7762 19.9905 11.6623 21.1002C9.59948 23.1642 9.39034 26.3756 11.0086 28.6888L8.40519 31.2922C8.30628 31.3869 8.22727 31.5004 8.17279 31.626C8.11832 31.7516 8.08947 31.8868 8.08795 32.0238C8.08643 32.1607 8.11227 32.2965 8.16394 32.4233C8.21561 32.5501 8.29208 32.6654 8.38887 32.7622C8.48565 32.8591 8.6008 32.9356 8.72757 32.9874C8.85433 33.0392 8.99016 33.0651 9.12708 33.0637C9.264 33.0623 9.39926 33.0336 9.52493 32.9792C9.6506 32.9248 9.76414 32.8459 9.85891 32.747L12.4635 30.1425C13.4559 30.8443 14.6411 31.2223 15.8566 31.2248ZM13.116 22.5562C13.8431 21.8305 14.8283 21.423 15.8555 21.423C16.8827 21.423 17.8679 21.8305 18.5949 22.5562C19.3206 23.2832 19.7281 24.2684 19.7281 25.2956C19.7281 26.3228 19.3206 27.308 18.5949 28.035C17.8677 28.7608 16.8823 29.1684 15.8549 29.1684C14.8275 29.1684 13.8421 28.7608 13.1149 28.035C12.3902 27.3074 11.9834 26.3223 11.9837 25.2954C11.9839 24.2685 12.3911 23.2835 13.116 22.5562ZM33.1881 15.1288C33.1881 15.8213 33.7515 16.3859 34.4452 16.3859H40.6509V16.043C40.6509 15.1288 40.2852 14.2602 39.6452 13.6202L35.9423 9.91734C35.2996 9.274 34.4277 8.91224 33.5183 8.91162H33.1881V15.1288Z" fill="#AB6A70"/>
</svg>
