<svg width="48" height="49" viewBox="0 0 48 49" fill="none" xmlns="http://www.w3.org/2000/svg">
<path d="M13.8125 22.0366H22.7992L26.2746 25.512C26.4057 25.6432 26.5727 25.7325 26.7546 25.7687C26.9365 25.8049 27.125 25.7863 27.2963 25.7152C27.4676 25.6443 27.614 25.5241 27.7171 25.37C27.8201 25.2158 27.8751 25.0345 27.8751 24.8491V22.0366H30.0626C31.6134 22.0366 32.8751 20.7749 32.8751 19.2241V11.7241C32.8751 10.1733 31.6134 8.91162 30.0626 8.91162H13.8125C12.2617 8.91162 11 10.1733 11 11.7241V19.2241C11 20.7749 12.2617 22.0366 13.8125 22.0366ZM15.6875 12.6616H28.1875C28.7053 12.6616 29.125 13.0814 29.125 13.5991C29.125 14.1169 28.7053 14.5366 28.1875 14.5366H15.6875C15.1697 14.5366 14.75 14.1169 14.75 13.5991C14.75 13.0814 15.1697 12.6616 15.6875 12.6616ZM15.6875 16.4116H28.1875C28.7053 16.4116 29.125 16.8314 29.125 17.3491C29.125 17.8669 28.7053 18.2866 28.1875 18.2866H15.6875C15.1697 18.2866 14.75 17.8669 14.75 17.3491C14.75 16.8314 15.1697 16.4116 15.6875 16.4116ZM23.8125 30.1616H22.7807C22.6606 29.5742 22.4282 29.0154 22.0964 28.516L22.8279 27.7846C23.1941 27.4185 23.1941 26.8249 22.8279 26.4587C22.4618 26.0926 21.8682 26.0926 21.5021 26.4587L20.7706 27.1902C20.2712 26.8584 19.7125 26.6261 19.1251 26.506V25.4741C19.1251 24.9564 18.7053 24.5366 18.1876 24.5366C17.6698 24.5366 17.2501 24.9564 17.2501 25.4741V26.5059C16.6525 26.6277 16.0963 26.8641 15.6045 27.1902L14.873 26.4587C14.5069 26.0926 13.9133 26.0926 13.5472 26.4587C13.1811 26.8247 13.1811 27.4184 13.5472 27.7845L14.2787 28.5159C13.9468 29.0153 13.7145 29.5741 13.5944 30.1616H12.5625C12.0447 30.1616 11.625 30.5813 11.625 31.0991C11.625 31.6168 12.0447 32.0366 12.5625 32.0366H13.5943C13.7144 32.624 13.9468 33.1828 14.2786 33.6822L13.5471 34.4136C13.1809 34.7797 13.1809 35.3733 13.5471 35.7394C13.634 35.8266 13.7374 35.8958 13.8511 35.9429C13.9649 35.99 14.0869 36.0142 14.21 36.0141C14.4499 36.0141 14.6899 35.9225 14.8729 35.7394L15.6044 35.0079C16.1038 35.3398 16.6625 35.5721 17.2499 35.6922V36.7241C17.2499 37.2419 17.6697 37.6616 18.1874 37.6616C18.7052 37.6616 19.1249 37.2419 19.1249 36.7241V35.6923C19.7225 35.5706 20.2787 35.3341 20.7705 35.0081L21.502 35.7396C21.6851 35.9226 21.925 36.0142 22.1649 36.0142C22.4048 36.0142 22.6447 35.9226 22.8278 35.7396C23.1939 35.3735 23.1939 34.7799 22.8278 34.4137L22.0963 33.6823C22.4282 33.1829 22.6605 32.6241 22.7806 32.0367H23.8125C24.3303 32.0367 24.75 31.6169 24.75 31.0992C24.75 30.5814 24.3303 30.1616 23.8125 30.1616ZM18.1875 32.0366C17.6697 32.0366 17.25 31.6169 17.25 31.0991C17.25 30.5814 17.6697 30.1616 18.1875 30.1616C18.7053 30.1616 19.125 30.5814 19.125 31.0991C19.125 31.6169 18.7053 32.0366 18.1875 32.0366ZM42.5311 33.7884L41.7624 33.3446C41.7988 33.0526 41.8172 32.7616 41.8172 32.4741C41.8172 32.1866 41.7988 31.8956 41.7624 31.6037L42.5311 31.1598C42.9795 30.9009 43.1331 30.3276 42.8743 29.8792L40.9993 26.6316C40.7404 26.1832 40.167 26.0295 39.7186 26.2884L38.9466 26.7342C38.4829 26.3818 37.9777 26.088 37.4422 25.8592V24.9741C37.4422 24.4564 37.0224 24.0366 36.5047 24.0366H32.7547C32.2369 24.0366 31.8172 24.4564 31.8172 24.9741V25.8591C31.2817 26.0879 30.7764 26.3818 30.3128 26.7341L29.5408 26.2884C29.0924 26.0295 28.5191 26.1831 28.2602 26.6315L26.3852 29.8791C26.1263 30.3275 26.2799 30.9009 26.7283 31.1597L27.4971 31.6036C27.4606 31.8956 27.4422 32.1866 27.4422 32.4741C27.4422 32.7616 27.4606 33.0526 27.4971 33.3445L26.7283 33.7884C26.2799 34.0472 26.1263 34.6206 26.3852 35.069L28.2602 38.3166C28.5191 38.7651 29.0924 38.9187 29.5409 38.6597L30.3129 38.214C30.781 38.5689 31.2838 38.8614 31.8172 39.089V39.9741C31.8172 40.4919 32.237 40.9116 32.7547 40.9116H36.5047C37.0225 40.9116 37.4422 40.4919 37.4422 39.9741V39.0891C37.9757 38.8615 38.4785 38.569 38.9466 38.2141L39.7186 38.6598C40.167 38.9187 40.7404 38.7651 40.9993 38.3167L42.8743 35.0691C43.1331 34.6207 42.9795 34.0473 42.5311 33.7884ZM34.6297 35.2866C33.0789 35.2866 31.8172 34.0249 31.8172 32.4741C31.8172 30.9233 33.0789 29.6616 34.6297 29.6616C36.1805 29.6616 37.4422 30.9233 37.4422 32.4741C37.4422 34.0249 36.1805 35.2866 34.6297 35.2866Z" fill="#AB6A70"/>
</svg>
