<svg width="48" height="49" viewBox="0 0 48 49" fill="none" xmlns="http://www.w3.org/2000/svg">
<path d="M26.322 40.9116H9.56836C8.69879 40.9116 7.94517 40.216 8.00314 39.2884L8.06111 35.1145C8.17705 33.5493 8.98865 32.158 10.264 31.2305L13.7423 28.6797C14.1481 28.3899 14.6698 28.5058 14.9597 28.9116C15.5973 29.8971 16.6988 30.5348 17.9742 30.5348C19.2495 30.5348 20.351 29.8971 20.9886 28.9116C21.2785 28.5058 21.8002 28.3899 22.206 28.6797L25.6843 31.2305C26.9597 32.158 27.7713 33.5493 27.8872 35.1145L27.9452 39.2884C27.9452 40.216 27.2495 40.9116 26.322 40.9116ZM23.6553 19.3464H23.5394C23.3655 16.4479 20.9307 14.129 17.9742 14.129C17.6263 14.129 17.3365 14.187 16.9886 14.187C16.0031 14.071 15.1336 14.071 14.6698 14.3029C14.0901 14.6508 13.2205 14.7087 12.5828 14.7087C12.0611 14.7087 11.6553 15.2305 11.8292 15.7522L12.5828 18.187C12.4669 18.5348 12.4089 18.9406 12.4089 19.2884H12.293C12.0031 19.3464 11.8292 19.9841 12.0031 20.7377C12.1191 21.4334 12.5249 22.0131 12.8147 21.9551C13.6263 24.5058 15.6553 27.0566 17.9742 27.0566C20.351 27.0566 22.322 24.5058 23.1336 21.9551C23.4234 21.9551 23.8292 21.4334 23.9452 20.7377C24.1191 20.0421 24.0031 19.4044 23.6553 19.3464ZM41.0466 8.91162H28.0611C27.4814 8.91162 27.0176 9.37539 27.0176 9.9551V23.1725C27.0176 23.6363 27.4814 23.9261 27.8872 23.7522L33.1626 21.4913C33.3365 21.4334 33.5104 21.3754 33.7423 21.3754H41.0466C41.6263 21.3754 42.0901 20.9116 42.0901 20.3319V9.9551C42.0901 9.37539 41.6263 8.91162 41.0466 8.91162ZM38.7858 14.245L36.9307 16.0421C36.8727 16.1 36.8727 16.158 36.8727 16.2739L37.3365 18.8247C37.3944 18.9986 37.1626 19.1725 36.9886 19.0565L34.6698 17.8392C34.6118 17.7812 34.4959 17.7812 34.4379 17.8392L32.1191 19.0565C31.9452 19.1725 31.7133 18.9986 31.7713 18.8247L32.235 16.2739C32.235 16.216 32.235 16.1 32.1771 16.0421L30.322 14.245C30.206 14.129 30.264 13.8392 30.4379 13.8392L32.9886 13.4913C33.0466 13.4913 33.1626 13.4334 33.1626 13.3754L34.322 11.0565C34.4379 10.8826 34.6698 10.8826 34.7278 11.0565L35.8872 13.3754C35.9452 13.4334 36.0031 13.4913 36.0611 13.4913L38.6118 13.8392C38.8437 13.8971 38.9597 14.129 38.7858 14.245Z" fill="#AB6A70"/>
</svg>
